<svg width="20" height="22" viewBox="0 0 20 22" fill="none" xmlns="http://www.w3.org/2000/svg">
<path d="M1.27661 10.7308C1.27661 9.03877 1.27661 8.19275 1.61865 7.44909C1.96068 6.70544 2.60303 6.15485 3.88772 5.05369L5.13392 3.98552C7.45599 1.99517 8.61702 1 10 1C11.383 1 12.5441 1.99517 14.8661 3.98552L16.1123 5.05369C17.397 6.15485 18.0394 6.70544 18.3814 7.44909C18.7234 8.19275 18.7234 9.03877 18.7234 10.7308V16.0152C18.7234 18.3651 18.7234 19.54 17.9934 20.27C17.2634 21 16.0885 21 13.7386 21H6.26142C3.91156 21 2.73663 21 2.00662 20.27C1.27661 19.54 1.27661 18.3651 1.27661 16.0152V10.7308Z" stroke="#868686"/>
<path d="M13.1155 20.9999V14.5227C13.1155 13.9704 12.6678 13.5227 12.1155 13.5227H7.88452C7.33224 13.5227 6.88452 13.9704 6.88452 14.5227V20.9999" stroke="#868686" stroke-linecap="round" stroke-linejoin="round"/>
</svg>
