<svg width="23" height="22" viewBox="0 0 23 22" fill="none" xmlns="http://www.w3.org/2000/svg">
<path d="M6.8916 10.4119L6.8916 5.60859C6.8916 3.06336 8.95492 1.00004 11.5002 1.00004V1.00004C14.0454 1.00004 16.1087 3.06336 16.1087 5.60859L16.1087 10.4119" stroke="#868686" stroke-width="1.25" stroke-linecap="round"/>
<path d="M1.98311 10.5567C2.12543 8.81282 2.19659 7.94087 2.77095 7.41148C3.34531 6.88208 4.22016 6.88208 5.96986 6.88208H17.0303C18.78 6.88208 19.6549 6.88208 20.2292 7.41148C20.8036 7.94087 20.8748 8.81282 21.0171 10.5567L21.6928 18.8371C21.7754 19.8492 21.8167 20.3553 21.5197 20.6776C21.2227 20.9998 20.7149 20.9998 19.6995 20.9998H3.30073C2.28526 20.9998 1.77752 20.9998 1.48049 20.6776C1.18346 20.3553 1.22476 19.8492 1.30735 18.8371L1.98311 10.5567Z" stroke="#868686" stroke-width="1.25"/>
</svg>
