<svg width="26" height="22" viewBox="0 0 26 22" fill="none" xmlns="http://www.w3.org/2000/svg">
<path d="M3.53781 12.3443L12.2522 20.5306C12.5524 20.8125 12.7025 20.9535 12.8794 20.9883C12.9591 21.0039 13.0411 21.0039 13.1208 20.9883C13.2978 20.9535 13.4479 20.8125 13.748 20.5306L22.4624 12.3443C24.9143 10.0411 25.212 6.25079 23.1499 3.59292L22.7621 3.09316C20.2952 -0.086408 15.3435 0.44683 13.6101 4.07872C13.3652 4.59175 12.635 4.59175 12.3901 4.07872C10.6567 0.44683 5.705 -0.0864032 3.23809 3.09317L2.85034 3.59293C0.788204 6.25079 1.08595 10.0411 3.53781 12.3443Z" stroke="#868686"/>
</svg>
